<svg xmlns="http://www.w3.org/2000/svg" viewBox="0 0 693 153.7"><defs><style>.cls-1{fill:#fff;}.cls-2{fill:#fbb03b;}.cls-3{fill:#009245;}</style></defs><g id="Layer_2" data-name="Layer 2"><g id="Layer_1-2" data-name="Layer 1"><path class="cls-1" d="M692.75,80.61l-.06,3L538.35,80.87c0-1-.07-2-.07-3Z"/><path class="cls-1" d="M692.75,99.61l-.06,3L541.54,99.93c-.3-1-.58-2-.84-3Z"/><path class="cls-2" d="M643.47,31.65l-4.8,5c-45.8-55-100.4-18.6-100.4,40.6,0,.21,0,.41,0,.62l-25.2-.45v-.17c0-42,26-76.2,70.59-76.2C625.87,1.05,641.87,28.85,643.47,31.65Z"/><path class="cls-3" d="M638.27,118.25l5,4.8c-1.8,3.6-18,30.4-59.6,30.4-36.42,0-60.43-22.68-68-54l25.88.46C553.93,141.67,599.31,165.07,638.27,118.25Z"/><path class="cls-1" d="M541.54,99.93l-25.88-.46c-.25-1-.47-2-.67-3l25.71.45C541,97.92,541.24,98.93,541.54,99.93Z"/><path class="cls-1" d="M540.7,96.91,515,96.46a92.84,92.84,0,0,1-1.85-16l25.21.44A80.06,80.06,0,0,0,540.7,96.91Z"/><path class="cls-1" d="M538.35,80.87l-25.21-.44c0-1-.06-2-.06-3l25.2.45C538.28,78.87,538.31,79.87,538.35,80.87Z"/><path class="cls-1" d="M515.66,99.47l-21.24-.38c.25-1,.49-2,.7-3l19.87.35C515.19,97.47,515.41,98.48,515.66,99.47Z"/><path class="cls-1" d="M513.14,80.43,497,80.14c0-1,.05-2,.06-3l16,.28C513.08,78.43,513.1,79.43,513.14,80.43Z"/><path class="cls-2" d="M497.07,76.65v.49l-24.4-.43v-.06c-.2-66-46.8-66-56.4-66H391.68V75.27l-22-.39v-51a19.59,19.59,0,0,0-17.8-19.4v-1h64.39C418.07,3.65,497.07-1.15,497.07,76.65Z"/><path class="cls-1" d="M472.67,76.71l24.4.43c0,1,0,2-.06,3l-24.37-.43Q472.69,78.24,472.67,76.71Z"/><path class="cls-1" d="M472.64,79.71l24.37.43a88.73,88.73,0,0,1-1.89,16l-23.95-.43A100.57,100.57,0,0,0,472.64,79.71Z"/><path class="cls-1" d="M471.17,95.68l23.95.43c-.21,1-.45,2-.7,3l-23.84-.42C470.79,97.69,471,96.7,471.17,95.68Z"/><path class="cls-3" d="M470.58,98.67l23.84.42c-13.76,53.45-76.55,50.76-78.15,50.76H369.68v-53l22,.39v45h24.59C422.9,142.25,461.17,142.1,470.58,98.67Z"/><path class="cls-1" d="M472.67,76.71q0,1.53,0,3l-81-1.44v-3Z"/><path class="cls-1" d="M391.68,94.27l79.49,1.41c-.18,1-.38,2-.59,3l-78.9-1.4Z"/><polygon class="cls-1" points="391.68 94.27 391.68 97.27 369.68 96.88 369.68 93.88 391.68 94.27"/><polygon class="cls-1" points="391.68 78.27 391.68 94.27 369.68 93.88 369.68 77.88 391.68 78.27"/><polygon class="cls-1" points="391.68 75.27 391.68 78.27 369.68 77.88 369.68 74.88 391.68 75.27"/><polygon class="cls-1" points="369.68 93.88 369.68 96.88 339.87 96.34 339.87 93.34 369.68 93.88"/><polygon class="cls-1" points="369.68 74.88 369.68 77.88 339.87 77.34 339.87 74.34 369.68 74.88"/><polygon class="cls-3" points="339.87 96.34 339.87 149.84 284.35 95.36 318.43 95.97 330.87 108.05 330.87 96.19 339.87 96.34"/><polygon class="cls-1" points="339.87 93.34 339.87 96.34 330.87 96.19 330.87 93.19 339.87 93.34"/><polygon class="cls-1" points="339.87 77.34 339.87 93.34 330.87 93.19 330.87 77.19 339.87 77.34"/><polygon class="cls-1" points="339.87 74.34 339.87 77.34 330.87 77.19 330.87 74.19 339.87 74.34"/><polygon class="cls-2" points="339.87 3.44 339.87 74.34 330.87 74.19 330.87 3.44 339.87 3.44"/><polygon class="cls-1" points="330.87 93.19 330.87 96.19 318.43 95.97 315.28 92.92 330.87 93.19"/><polygon class="cls-1" points="330.87 74.19 330.87 77.19 298.48 76.61 295.33 73.56 330.87 74.19"/><polygon class="cls-1" points="318.43 95.97 284.35 95.36 281.23 92.31 315.28 92.92 318.43 95.97"/><polygon class="cls-1" points="315.28 92.92 281.23 92.31 264.63 76.02 298.48 76.61 315.28 92.92"/><polygon class="cls-1" points="295.33 73.56 298.48 76.61 264.63 76.02 261.51 72.95 295.33 73.56"/><path class="cls-2" d="M236.07,16.05l59.26,57.51L261.51,73,233.27,45.25V72.46l-9-.16V37.05c0-11.4-1.6-28-17.4-32.6v-1C221.47,3.45,231.07,11.85,236.07,16.05Z"/><polygon class="cls-1" points="284.35 95.36 233.27 94.45 233.27 91.45 281.23 92.31 284.35 95.36"/><polygon class="cls-1" points="264.63 76.02 233.27 75.45 233.27 72.45 261.51 72.95 264.63 76.02"/><polygon class="cls-3" points="233.27 94.45 233.27 149.84 224.27 149.84 224.27 94.3 233.27 94.45"/><polygon class="cls-1" points="233.27 91.45 233.27 94.45 224.27 94.3 224.27 91.3 233.27 91.45"/><polygon class="cls-1" points="233.27 75.45 233.27 91.45 224.27 91.3 224.27 75.3 233.27 75.45"/><polygon class="cls-1" points="233.27 72.45 233.27 75.45 224.27 75.3 224.27 72.3 233.27 72.45"/><path class="cls-1" d="M224.27,91.3v3l-24.7-.44c.16-1,.3-2,.43-3Z"/><path class="cls-1" d="M224.27,72.3v3l-23.41-.41c0-1,0-2-.07-3Z"/><path class="cls-1" d="M200.86,74.89c0,.45,0,.9,0,1.36A118.87,118.87,0,0,1,200,90.87l-23.79-.42q.66-6.66.66-14.2c0-.6,0-1.2,0-1.79Z"/><path class="cls-1" d="M200.86,74.89l-24-.43q0-1.51-.06-3l24,.43C200.83,72.88,200.85,73.88,200.86,74.89Z"/><path class="cls-2" d="M200.79,71.89l-24-.43c-1.37-43.73-21.61-64.61-46.52-64.61-24.39,0-44.61,20.7-46.46,63l-23.94-.42C62.58,22.83,93.05.25,130.27.25,168.15.25,199.06,23.27,200.79,71.89Z"/><path class="cls-1" d="M176.21,90.45l23.79.42c-.13,1-.27,2-.43,3l-23.68-.42C176,92.46,176.12,91.46,176.21,90.45Z"/><path class="cls-3" d="M175.89,93.44l23.68.42c-6.3,40.57-34.93,58.59-69.3,58.59-35.06,0-64.14-18.75-69.66-61l23.86.42c4.07,37.37,23.13,53.83,45.8,53.83C152.78,145.65,171.48,129.66,175.89,93.44Z"/><path class="cls-1" d="M176.85,74.46,83.71,72.81c0-1,.06-2,.1-3l93,1.65Q176.85,72.95,176.85,74.46Z"/><path class="cls-1" d="M84.18,88.82l92,1.63c-.09,1-.2,2-.32,3L84.47,91.82C84.37,90.83,84.27,89.83,84.18,88.82Z"/><path class="cls-1" d="M84.47,91.82,60.61,91.4c-.13-1-.24-2-.34-3l23.91.43C84.27,89.83,84.37,90.83,84.47,91.82Z"/><path class="cls-1" d="M84.18,88.82l-23.91-.43a117.76,117.76,0,0,1-.6-12.14q0-2,.06-3.87l24,.43c0,1.13,0,2.28,0,3.44C83.67,80.67,83.84,84.85,84.18,88.82Z"/><path class="cls-1" d="M59.87,69.39l23.94.42c0,1-.08,2-.1,3l-24-.43C59.76,71.37,59.81,70.38,59.87,69.39Z"/><path class="cls-1" d="M60.61,91.4.25,90.33l0-3,60,1.06C60.37,89.41,60.48,90.41,60.61,91.4Z"/><path class="cls-1" d="M.3,68.33l59.57,1.06c-.06,1-.11,2-.14,3l-59.48-1Z"/></g></g></svg>